# xmcd CD database file
#
# Track frame offsets:
#	187
#	24192
#	36777
#	66652
#	86912
#	105210
#	111647
#	132607
#
# Disc length: 2407 seconds
#
# Revision: 1
# Processed by: cddbd v1.5.1PL0 Copyright (c) Steve Scherf et al.
# Submitted via: CDex 1.60beta1
#
DISCID=6f096508
DTITLE=ELECTRIC SUN - Earthquake
DYEAR=1979
DGENRE=Hard Rock
TTITLE0=Electric Sun
TTITLE1=Lilac
TTITLE2=Burning Wheels Turning
TTITLE3=Japanese Dream
TTITLE4=Sundown
TTITLE5=Winterdays
TTITLE6=Still So Many Lives Away
TTITLE7=Earthquake
EXTD=YEAR: 1979
EXTT0=
EXTT1=
EXTT2=
EXTT3=
EXTT4=
EXTT5=
EXTT6=
EXTT7=
PLAYORDER=
